<svg width="32" height="33" viewBox="0 0 32 33" fill="none" xmlns="http://www.w3.org/2000/svg">
<g clip-path="url(#clip0_3_112)">
<mask id="mask0_3_112" style="mask-type:alpha" maskUnits="userSpaceOnUse" x="0" y="0" width="32" height="33">
<path d="M32 16.5C32 7.66344 24.8366 0.5 16 0.5C7.16344 0.5 0 7.66344 0 16.5C0 25.3366 7.16344 32.5 16 32.5C24.8366 32.5 32 25.3366 32 16.5Z" fill="white"/>
</mask>
<g mask="url(#mask0_3_112)">
<path d="M32 0H0V32.4129H32V0Z" fill="#064061"/>
<path d="M16.1637 4.70134C7.43592 6.10151 1.48128 14.4031 2.86363 23.2435C4.24597 32.0839 12.4418 38.1154 21.1696 36.7152C29.8974 35.315 35.852 27.0134 34.4696 18.173C33.0873 9.33263 24.8915 3.30116 16.1637 4.70134Z" fill="#98DAFF"/>
<path d="M7.12732 18.0856C7.14275 18.9809 7.62573 19.8313 8.47 20.4496C9.31428 21.068 10.4507 21.4037 11.6293 21.3828C12.8078 21.362 13.932 20.9863 14.7544 20.3385C15.5769 19.6907 16.0303 18.8238 16.0149 17.9284" fill="#064061"/>
<path d="M8.39839 14.4612C8.38982 13.964 8.08444 13.5662 7.71631 13.5727C7.34818 13.5792 7.05669 13.9875 7.06526 14.4847C7.07382 14.9819 7.3792 15.3797 7.74734 15.3732C8.11547 15.3667 8.40696 14.9583 8.39839 14.4612Z" fill="#064061"/>
<path d="M15.5084 14.3355C15.4999 13.8383 15.1945 13.4405 14.8264 13.447C14.4582 13.4535 14.1667 13.8618 14.1753 14.359C14.1839 14.8562 14.4892 15.254 14.8574 15.2475C15.2255 15.2409 15.517 14.8326 15.5084 14.3355Z" fill="#064061"/>
</g>
</g>
<defs>
<clipPath id="clip0_3_112">
<rect width="32" height="32" fill="white" transform="translate(0 0.5)"/>
</clipPath>
</defs>
</svg>
